<?xml version="1.0" encoding="utf-8"?>
<!-- Generator: Adobe Illustrator 24.1.2, SVG Export Plug-In . SVG Version: 6.00 Build 0)  -->
<svg version="1.1" id="plugin-icon" xmlns="http://www.w3.org/2000/svg" xmlns:xlink="http://www.w3.org/1999/xlink" x="0px" y="-0px"
	 viewBox="0 0 200 130" style="enable-background:new 0 0 200 138;" xml:space="preserve">
<style type="text/css">
	.st0{fill:#FFFFFF;}
</style>
<g>
	<path class="st0" d="M96.4,43c5.8-0.4,11,1.6,15.6,5.9c7.1,6.7,9,14.4,5.8,23.2c-1.8,5-5.5,10.4-11,16.2
		c-5.3,5.7-10.5,9.7-15.5,12.1C81.8,105,73.4,103.9,66,97c-3.5-3.3-5.7-7.3-6.5-12s0.4-9.2,3.7-13.6l9.1,8.6c-1.1,1.6-1.6,3.2-1.4,5
		c0.1,1.7,1,3.4,2.6,4.8c3,2.9,6.7,3.2,11.1,1c2.4-1.2,5.4-3.5,8.9-6.9c-1.8,0.3-3.5,0.2-4.9-0.1c-2.7-0.6-5.3-2.1-7.8-4.4
		c-3.7-3.5-5.8-7.9-6.3-13.1C74,61,76.1,56,80.6,51.1C85.3,46,90.6,43.3,96.4,43z M94.4,76c3.3,0.6,6.5-0.7,9.6-4
		c2.5-2.6,3.8-5.3,4.1-8c0.2-2.7-0.8-5.1-2.9-7.1c-1.6-1.5-3.3-2.3-5.2-2.5c-3.1-0.3-6.1,1.2-9.2,4.5c-2.6,2.8-4,5.4-4.2,7.8
		s0.9,4.8,3.2,7C91.1,74.9,92.6,75.7,94.4,76z"/>
	<path class="st0" d="M61.6,46.7C32,78.2,52.3,97.2,52.3,97.2c-10.7-10-30.5-28.7-0.9-60.2s49.4-12.8,60.1-2.8
		C111.4,34.2,91.2,15.2,61.6,46.7z"/>
	<path class="st0" d="M118.7,100.3c-29.6,31.5-49.8,12.5-49.8,12.5c10.7,10,30.5,28.7,60.1-2.8s9.7-50.2-0.9-60.2
		C128,49.8,148.3,68.8,118.7,100.3z"/>
</g>
<g>
	<path class="st0" d="M132.2,4.1L132.2,4.1c-2.6-2.4-6.6-2.3-9,0.3l-11,11.7c-2.4,2.6-2.3,6.6,0.3,9l0,0c2.6,2.4,6.6,2.3,9-0.3
		l11-11.7C134.9,10.6,134.8,6.5,132.2,4.1z"/>
	<path class="st0" d="M156.8,27.1L156.8,27.1c-2.6-2.4-6.6-2.3-9,0.3l-11,11.7c-2.4,2.6-2.3,6.6,0.3,9l0,0c2.6,2.4,6.6,2.3,9-0.3
		l11-11.7C159.5,33.6,159.3,29.6,156.8,27.1z"/>
</g>
</svg>
