<?xml version="1.0" encoding="utf-8"?>
<!-- Generator: Adobe Illustrator 24.1.2, SVG Export Plug-In . SVG Version: 6.00 Build 0)  -->
<svg version="1.1" id="Layer_1" xmlns="http://www.w3.org/2000/svg" xmlns:xlink="http://www.w3.org/1999/xlink" x="0px" y="0px"
	 viewBox="0 0 500 347.4" style="enable-background:new 0 0 500 347.4;" xml:space="preserve">
<style type="text/css">
	.st0{opacity:0.5;}
	.st1{fill:#5185C3;}
</style>
<g class="st0">
	<path class="st1" d="M434.4,24.3c-22,0-39.8,17.8-39.8,39.8s17.8,39.8,39.8,39.8s39.8-17.8,39.8-39.8S456.4,24.3,434.4,24.3z
		 M448.2,86.6c-3.1,3.4-7.8,5.2-14,5.2c-7.6,0-12.9-2.5-15.8-7.4c-1.6-2.6-2.4-6.1-2.6-10.4h10.4c0,2.1,0.3,3.9,1,5.3
		c1.3,2.6,3.6,3.9,7,3.9c2.1,0,3.9-0.7,5.4-2.1s2.3-3.5,2.3-6.1c0-3.5-1.4-5.9-4.3-7.1c-1.6-0.7-4.2-1-7.7-1v-7.5
		c3.4,0,5.8-0.4,7.2-1c2.3-1,3.5-3.1,3.5-6.3c0-2-0.6-3.7-1.8-5c-1.2-1.3-2.9-1.9-5-1.9c-2.5,0-4.3,0.8-5.5,2.4
		c-1.2,1.6-1.7,3.7-1.7,6.3h-9.8c0.1-2.7,0.6-5.2,1.4-7.6c0.9-2.1,2.2-4,4.1-5.8c1.4-1.3,3-2.2,4.9-2.9s4.2-1,7-1
		c5.1,0,9.3,1.3,12.4,4s4.7,6.2,4.7,10.7c0,3.2-0.9,5.8-2.8,8c-1.2,1.4-2.4,2.3-3.7,2.8c1,0,2.3,0.8,4.1,2.5c2.7,2.5,4,5.9,4,10.2
		C452.9,79.2,451.4,83.1,448.2,86.6z"/>
	<g>
		<path class="st1" d="M139.2,80.1c13.2-14.2,30.4-21.3,51.6-21.3c32.6,0,54.9,14.4,67,43.2c6.9,16.3,10.3,37.8,10.3,64.5
			c0,25.9-3.3,47.5-9.9,64.8c-12.6,33-35.7,49.4-69.4,49.4c-16,0-30.4-4.7-43.2-14.2s-20.1-23.3-22-41.5h41.9c1,6.3,3.6,11.4,8,15.3
			c4.3,3.9,10.1,5.9,17.3,5.9c13.9,0,23.6-7.7,29.2-23c3-8.5,5-20.8,5.8-37c-3.8,4.8-7.9,8.5-12.2,11.1c-7.9,4.7-17.6,7.1-29.1,7.1
			c-17,0-32.1-5.9-45.3-17.6C126,175,119.4,158.1,119.4,136C119.3,112.9,125.9,94.3,139.2,80.1z M209.9,165
			c9.5-6.1,14.3-16.7,14.3-31.7c0-12.1-2.8-21.7-8.5-28.8c-5.7-7.1-13.4-10.6-23.2-10.6c-7.2,0-13.3,2-18.4,6
			c-8.1,6.3-12.1,17-12.1,32c0,12.7,2.6,22.2,7.7,28.6c5.2,6.3,13.1,9.5,23.8,9.5C199.3,170,204.8,168.4,209.9,165z"/>
		<path class="st1" d="M63,168.7c0,144.2,92.6,144.2,92.6,144.2c-48.8,0-139.8,0-139.8-144.2S106.7,24.5,155.6,24.5
			C155.6,24.5,63,24.5,63,168.7z"/>
		<path class="st1" d="M324.4,168.7c0,144.2-92.6,144.2-92.6,144.2c48.8,0,139.8,0,139.8-144.2s-91-144.2-139.8-144.2
			C231.8,24.5,324.4,24.5,324.4,168.7z"/>
	</g>
</g>
</svg>
